# Blender v2.76 (sub 0) OBJ File: ''
# www.blender.org
mtllib transformer.mtl
o Cylinder_Cylinder.002
v 0.500000 -0.004999 0.400000
v 0.500000 0.135001 0.400000
v 0.570711 -0.004999 0.429289
v 0.570711 0.135001 0.429289
v 0.600000 -0.004999 0.500000
v 0.600000 0.135001 0.500000
v 0.570711 -0.004999 0.570711
v 0.570711 0.135001 0.570711
v 0.500000 -0.004999 0.600000
v 0.500000 0.135001 0.600000
v 0.429289 -0.004999 0.570711
v 0.429289 0.135001 0.570711
v 0.400000 -0.004999 0.500000
v 0.400000 0.135001 0.500000
v 0.429289 -0.004999 0.429289
v 0.429289 0.135001 0.429289
v 0.500000 0.865000 0.400000
v 0.500000 1.005000 0.400000
v 0.570711 0.865000 0.429289
v 0.570711 1.005000 0.429289
v 0.600000 0.865000 0.500000
v 0.600000 1.005000 0.500000
v 0.570711 0.865000 0.570711
v 0.570711 1.005000 0.570711
v 0.500000 0.865000 0.600000
v 0.500000 1.005000 0.600000
v 0.429289 0.865000 0.570711
v 0.429289 1.005000 0.570711
v 0.400000 0.865000 0.500000
v 0.400000 1.005000 0.500000
v 0.429289 0.865000 0.429289
v 0.429289 1.005000 0.429289
v 0.000000 0.600000 0.500000
v 0.140000 0.600000 0.500000
v 0.000000 0.570711 0.429289
v 0.140000 0.570711 0.429289
v 0.000000 0.500000 0.400000
v 0.140000 0.500000 0.400000
v 0.000000 0.429289 0.429289
v 0.140000 0.429289 0.429289
v 0.000000 0.400000 0.500000
v 0.140000 0.400000 0.500000
v 0.000000 0.429289 0.570711
v 0.140000 0.429289 0.570711
v 0.000000 0.500000 0.600000
v 0.140000 0.500000 0.600000
v 0.000000 0.570711 0.570711
v 0.140000 0.570711 0.570711
v 0.500000 0.600000 0.000000
v 0.500000 0.600000 0.140000
v 0.570711 0.570711 0.000000
v 0.570711 0.570711 0.140000
v 0.600000 0.500000 0.000000
v 0.600000 0.500000 0.140000
v 0.570711 0.429289 0.000000
v 0.570711 0.429289 0.140000
v 0.500000 0.400000 0.000000
v 0.500000 0.400000 0.140000
v 0.429289 0.429289 0.000000
v 0.429289 0.429289 0.140000
v 0.400000 0.500000 0.000000
v 0.400000 0.500000 0.140000
v 0.429289 0.570711 0.000000
v 0.429289 0.570711 0.140000
v 0.860000 0.600000 0.500000
v 1.000000 0.600000 0.500000
v 0.860000 0.570711 0.429289
v 1.000000 0.570711 0.429289
v 0.860000 0.500000 0.400000
v 1.000000 0.500000 0.400000
v 0.860000 0.429289 0.429289
v 1.000000 0.429289 0.429289
v 0.860000 0.400000 0.500000
v 1.000000 0.400000 0.500000
v 0.860000 0.429289 0.570711
v 1.000000 0.429289 0.570711
v 0.860000 0.500000 0.600000
v 1.000000 0.500000 0.600000
v 0.860000 0.570711 0.570711
v 1.000000 0.570711 0.570711
v 0.500000 0.135001 0.400000
v 0.570711 0.135001 0.429289
v 0.600000 0.135001 0.500000
v 0.570711 0.135001 0.570711
v 0.500000 0.135001 0.600000
v 0.429289 0.135001 0.570711
v 0.400000 0.135001 0.500000
v 0.429289 0.135001 0.429289
v 0.500000 -0.007000 0.420000
v 0.500000 0.133000 0.420000
v 0.556569 -0.007000 0.443431
v 0.556569 0.133000 0.443431
v 0.580000 -0.007000 0.500000
v 0.580000 0.133000 0.500000
v 0.556569 -0.007000 0.556569
v 0.556569 0.133000 0.556569
v 0.500000 -0.007000 0.580000
v 0.500000 0.133000 0.580000
v 0.443431 -0.007000 0.556569
v 0.443431 0.133000 0.556569
v 0.420000 -0.007000 0.500000
v 0.420000 0.133000 0.500000
v 0.443431 -0.007000 0.443431
v 0.443431 0.133000 0.443431
v 0.500000 0.867000 0.420000
v 0.500000 1.007000 0.420000
v 0.556569 0.867000 0.443431
v 0.556569 1.007000 0.443431
v 0.580000 0.867000 0.500000
v 0.580000 1.007000 0.500000
v 0.556569 0.867000 0.556569
v 0.556569 1.007000 0.556569
v 0.500000 0.867000 0.580000
v 0.500000 1.007000 0.580000
v 0.443431 0.867000 0.556569
v 0.443431 1.007000 0.556569
v 0.420000 0.867000 0.500000
v 0.420000 1.007000 0.500000
v 0.443431 0.867000 0.443431
v 0.443431 1.007000 0.443431
v 0.500000 0.865000 0.400000
v 0.570711 0.865000 0.429289
v 0.600000 0.865000 0.500000
v 0.570711 0.865000 0.570711
v 0.500000 0.865000 0.600000
v 0.429289 0.865000 0.570711
v 0.400000 0.865000 0.500000
v 0.429289 0.865000 0.429289
v -0.002000 0.580000 0.500000
v 0.138000 0.580000 0.500000
v -0.002000 0.556569 0.443431
v 0.138000 0.556569 0.443431
v -0.002000 0.500000 0.420000
v 0.138000 0.500000 0.420000
v -0.002000 0.443431 0.443431
v 0.138000 0.443431 0.443431
v -0.002000 0.420000 0.500000
v 0.138000 0.420000 0.500000
v -0.002000 0.443431 0.556569
v 0.138000 0.443431 0.556569
v -0.002000 0.500000 0.580000
v 0.138000 0.500000 0.580000
v -0.002000 0.556569 0.556569
v 0.138000 0.556569 0.556569
v 0.140000 0.600000 0.500000
v 0.140000 0.570711 0.429289
v 0.140000 0.500000 0.400000
v 0.140000 0.429289 0.429289
v 0.140000 0.400000 0.500000
v 0.140000 0.429289 0.570711
v 0.140000 0.500000 0.600000
v 0.140000 0.570711 0.570711
v 0.500000 0.580000 -0.002000
v 0.500000 0.580000 0.138000
v 0.556569 0.556569 -0.002000
v 0.556569 0.556569 0.138000
v 0.580000 0.500000 -0.002000
v 0.580000 0.500000 0.138000
v 0.556569 0.443431 -0.002000
v 0.556569 0.443431 0.138000
v 0.500000 0.420000 -0.002000
v 0.500000 0.420000 0.138000
v 0.443431 0.443431 -0.002000
v 0.443431 0.443431 0.138000
v 0.420000 0.500000 -0.002000
v 0.420000 0.500000 0.138000
v 0.443431 0.556569 -0.002000
v 0.443431 0.556569 0.138000
v 0.500000 0.600000 0.140000
v 0.570711 0.570711 0.140000
v 0.600000 0.500000 0.140000
v 0.570711 0.429289 0.140000
v 0.500000 0.400000 0.140000
v 0.429289 0.429289 0.140000
v 0.400000 0.500000 0.140000
v 0.429289 0.570711 0.140000
v 0.862000 0.580000 0.500000
v 1.002000 0.580000 0.500000
v 0.862000 0.556569 0.443431
v 1.002000 0.556569 0.443431
v 0.862000 0.500000 0.420000
v 1.002000 0.500000 0.420000
v 0.862000 0.443431 0.443431
v 1.002000 0.443431 0.443431
v 0.862000 0.420000 0.500000
v 1.002000 0.420000 0.500000
v 0.862000 0.443431 0.556569
v 1.002000 0.443431 0.556569
v 0.862000 0.500000 0.580000
v 1.002000 0.500000 0.580000
v 0.862000 0.556569 0.556569
v 1.002000 0.556569 0.556569
v 0.860000 0.600000 0.500000
v 0.860000 0.570711 0.429289
v 0.860000 0.500000 0.400000
v 0.860000 0.429289 0.429289
v 0.860000 0.400000 0.500000
v 0.860000 0.429289 0.570711
v 0.860000 0.500000 0.600000
v 0.860000 0.570711 0.570711
vt 0.853553 0.146447
vt 0.000000 0.500000
vt 0.146447 0.853553
vt 0.500000 0.000000
vt 0.146447 0.146447
vt 0.500000 1.000000
vt 0.853553 0.853553
vt 1.000000 0.500000
vt 0.000000 0.000000
vt 1.000000 0.000000
vt 1.000000 1.000000
vt 0.000000 1.000000
vn 0.000000 -1.000000 0.000000
vn 0.000000 1.000000 -0.000000
vn -1.000000 0.000000 0.000000
vn 1.000000 0.000000 0.000000
vn 0.382700 0.000000 -0.923900
vn 0.923900 0.000000 -0.382700
vn 0.923900 0.000000 0.382700
vn 0.382700 -0.000000 0.923900
vn -0.382700 0.000000 0.923900
vn -0.923900 0.000000 0.382700
vn -0.382700 0.000000 -0.923900
vn -0.923900 0.000000 -0.382700
vn 0.000000 0.923900 -0.382700
vn 0.000000 0.382700 -0.923900
vn 0.000000 -0.382700 -0.923900
vn 0.000000 -0.923900 -0.382700
vn 0.000000 -0.923900 0.382700
vn 0.000000 -0.382700 0.923900
vn 0.000000 0.923900 0.382700
vn 0.000000 0.382700 0.923900
vn 0.382700 0.923900 0.000000
vn 0.923900 0.382700 0.000000
vn 0.923900 -0.382700 -0.000000
vn 0.382700 -0.923900 0.000000
vn -0.382700 -0.923900 -0.000000
vn -0.923900 -0.382700 0.000000
vn -0.382700 0.923900 0.000000
vn -0.923900 0.382700 0.000000
vn 0.000000 0.000000 -1.000000
vn 0.000000 0.000000 1.000000
usemtl None
s off
f 95/1/1 101/2/1 103/3/1
f 116/4/2 114/5/2 110/3/2
f 135/1/3 141/2/3 143/3/3
f 190/1/4 186/5/4 182/3/4
f 103/3/1 89/6/1 91/7/1
f 91/7/1 93/8/1 103/3/1
f 95/1/1 97/4/1 99/5/1
f 99/5/1 101/2/1 95/1/1
f 103/3/1 93/8/1 95/1/1
f 110/3/2 108/6/2 106/7/2
f 106/7/2 120/8/2 110/3/2
f 118/1/2 116/4/2 110/3/2
f 114/5/2 112/2/2 110/3/2
f 110/3/2 120/8/2 118/1/2
f 143/3/3 129/6/3 131/7/3
f 131/7/3 133/8/3 143/3/3
f 135/1/3 137/4/3 139/5/3
f 139/5/3 141/2/3 135/1/3
f 143/3/3 133/8/3 135/1/3
f 182/3/4 180/6/4 178/7/4
f 178/7/4 192/8/4 190/1/4
f 190/1/4 188/4/4 186/5/4
f 186/5/4 184/2/4 182/3/4
f 182/3/4 178/7/4 190/1/4
usemtl None_cable_insulation.png
f 2/9/5 4/9/5 3/9/5
f 3/9/6 4/9/6 6/9/6
f 5/9/7 6/9/7 8/9/7
f 7/9/8 8/9/8 10/9/8
f 9/9/9 10/9/9 12/9/9
f 12/9/10 14/9/10 13/9/10
f 16/9/11 2/9/11 1/9/11
f 14/9/12 16/9/12 15/9/12
f 7/9/1 13/9/1 15/9/1
f 18/9/5 20/9/5 19/9/5
f 19/9/6 20/9/6 22/9/6
f 22/9/7 24/9/7 23/9/7
f 24/9/8 26/9/8 25/9/8
f 26/9/9 28/9/9 27/9/9
f 28/9/10 30/9/10 29/9/10
f 30/9/2 24/9/2 22/9/2
f 32/9/11 18/9/11 17/9/11
f 30/9/12 32/9/12 31/9/12
f 34/9/13 36/9/13 35/9/13
f 36/9/14 38/9/14 37/9/14
f 38/9/15 40/9/15 39/9/15
f 40/9/16 42/9/16 41/9/16
f 42/9/17 44/9/17 43/9/17
f 44/9/18 46/9/18 45/9/18
f 48/9/19 34/9/19 33/9/19
f 46/9/20 48/9/20 47/9/20
f 39/9/3 43/9/3 47/9/3
f 50/9/21 52/9/21 51/9/21
f 52/9/22 54/9/22 53/9/22
f 54/9/23 56/9/23 55/9/23
f 56/9/24 58/9/24 57/9/24
f 58/9/25 60/9/25 59/9/25
f 60/9/26 62/9/26 61/9/26
f 64/9/27 50/9/27 49/9/27
f 62/9/28 64/9/28 63/9/28
f 55/9/29 61/9/29 63/9/29
f 65/9/13 66/9/13 68/9/13
f 68/9/14 70/9/14 69/9/14
f 70/9/15 72/9/15 71/9/15
f 72/9/16 74/9/16 73/9/16
f 74/9/17 76/9/17 75/9/17
f 76/9/18 78/9/18 77/9/18
f 76/9/4 74/9/4 70/9/4
f 80/9/19 66/9/19 65/9/19
f 78/9/20 80/9/20 79/9/20
f 87/1/2 85/5/2 83/3/2
f 90/10/5 92/11/5 91/12/5
f 92/10/6 94/11/6 93/12/6
f 94/10/7 96/11/7 95/12/7
f 96/10/8 98/11/8 97/12/8
f 97/9/9 98/10/9 100/11/9
f 99/9/10 100/10/10 102/11/10
f 102/1/2 96/2/2 94/3/2
f 104/10/11 90/11/11 89/12/11
f 102/10/12 104/11/12 103/12/12
f 106/10/5 108/11/5 107/12/5
f 108/10/6 110/11/6 109/12/6
f 110/10/7 112/11/7 111/12/7
f 112/10/8 114/11/8 113/12/8
f 114/10/9 116/11/9 115/12/9
f 116/10/10 118/11/10 117/12/10
f 120/10/11 106/11/11 105/12/11
f 118/10/12 120/11/12 119/12/12
f 111/1/1 115/5/1 119/3/1
f 124/1/1 126/5/1 122/7/1
f 130/10/13 132/11/13 131/12/13
f 132/10/14 134/11/14 133/12/14
f 134/10/15 136/11/15 135/12/15
f 136/10/16 138/11/16 137/12/16
f 137/9/17 138/10/17 140/11/17
f 140/10/18 142/11/18 141/12/18
f 142/1/4 138/5/4 134/3/4
f 144/10/19 130/11/19 129/12/19
f 142/10/20 144/11/20 143/12/20
f 150/4/4 149/5/4 147/3/4
f 166/1/30 162/5/30 158/3/30
f 175/1/30 172/2/30 171/3/30
f 178/10/13 180/11/13 179/12/13
f 180/10/14 182/11/14 181/12/14
f 182/10/15 184/11/15 183/12/15
f 184/10/16 186/11/16 185/12/16
f 186/10/17 188/11/17 187/12/17
f 188/10/18 190/11/18 189/12/18
f 192/10/19 178/11/19 177/12/19
f 190/10/20 192/11/20 191/12/20
f 183/1/3 189/2/3 191/3/3
f 196/1/3 198/5/3 200/3/3
f 1/9/5 2/9/5 3/9/5
f 5/9/6 3/9/6 6/9/6
f 7/9/7 5/9/7 8/9/7
f 9/9/8 7/9/8 10/9/8
f 11/9/9 9/9/9 12/9/9
f 11/9/10 12/9/10 13/9/10
f 15/9/11 16/9/11 1/9/11
f 13/9/12 14/9/12 15/9/12
f 15/9/1 1/9/1 3/9/1
f 3/9/1 5/9/1 7/9/1
f 7/9/1 9/9/1 11/9/1
f 11/9/1 13/9/1 7/9/1
f 15/9/1 3/9/1 7/9/1
f 17/9/5 18/9/5 19/9/5
f 21/9/6 19/9/6 22/9/6
f 21/9/7 22/9/7 23/9/7
f 23/9/8 24/9/8 25/9/8
f 25/9/9 26/9/9 27/9/9
f 27/9/10 28/9/10 29/9/10
f 22/9/2 20/9/2 18/9/2
f 18/9/2 32/9/2 30/9/2
f 30/9/2 28/9/2 26/9/2
f 26/9/2 24/9/2 30/9/2
f 22/9/2 18/9/2 30/9/2
f 31/9/11 32/9/11 17/9/11
f 29/9/12 30/9/12 31/9/12
f 33/9/13 34/9/13 35/9/13
f 35/9/14 36/9/14 37/9/14
f 37/9/15 38/9/15 39/9/15
f 39/9/16 40/9/16 41/9/16
f 41/9/17 42/9/17 43/9/17
f 43/9/18 44/9/18 45/9/18
f 47/9/19 48/9/19 33/9/19
f 45/9/20 46/9/20 47/9/20
f 47/9/3 33/9/3 35/9/3
f 35/9/3 37/9/3 39/9/3
f 39/9/3 41/9/3 43/9/3
f 43/9/3 45/9/3 47/9/3
f 47/9/3 35/9/3 39/9/3
f 49/9/21 50/9/21 51/9/21
f 51/9/22 52/9/22 53/9/22
f 53/9/23 54/9/23 55/9/23
f 55/9/24 56/9/24 57/9/24
f 57/9/25 58/9/25 59/9/25
f 59/9/26 60/9/26 61/9/26
f 63/9/27 64/9/27 49/9/27
f 61/9/28 62/9/28 63/9/28
f 63/9/29 49/9/29 55/9/29
f 51/9/29 53/9/29 55/9/29
f 55/9/29 57/9/29 59/9/29
f 59/9/29 61/9/29 55/9/29
f 49/9/29 51/9/29 55/9/29
f 67/9/13 65/9/13 68/9/13
f 67/9/14 68/9/14 69/9/14
f 69/9/15 70/9/15 71/9/15
f 71/9/16 72/9/16 73/9/16
f 73/9/17 74/9/17 75/9/17
f 75/9/18 76/9/18 77/9/18
f 70/9/4 68/9/4 66/9/4
f 66/9/4 80/9/4 70/9/4
f 78/9/4 76/9/4 70/9/4
f 74/9/4 72/9/4 70/9/4
f 70/9/4 80/9/4 78/9/4
f 79/9/19 80/9/19 65/9/19
f 77/9/20 78/9/20 79/9/20
f 83/3/2 82/6/2 87/1/2
f 81/7/2 88/8/2 87/1/2
f 87/1/2 86/4/2 85/5/2
f 85/5/2 84/2/2 83/3/2
f 82/6/2 81/7/2 87/1/2
f 89/9/5 90/10/5 91/12/5
f 91/9/6 92/10/6 93/12/6
f 93/9/7 94/10/7 95/12/7
f 95/9/8 96/10/8 97/12/8
f 99/12/9 97/9/9 100/11/9
f 101/12/10 99/9/10 102/11/10
f 94/3/2 92/6/2 90/7/2
f 90/7/2 104/8/2 102/1/2
f 102/1/2 100/4/2 98/5/2
f 98/5/2 96/2/2 102/1/2
f 94/3/2 90/7/2 102/1/2
f 103/9/11 104/10/11 89/12/11
f 101/9/12 102/10/12 103/12/12
f 105/9/5 106/10/5 107/12/5
f 107/9/6 108/10/6 109/12/6
f 109/9/7 110/10/7 111/12/7
f 111/9/8 112/10/8 113/12/8
f 113/9/9 114/10/9 115/12/9
f 115/9/10 116/10/10 117/12/10
f 119/9/11 120/10/11 105/12/11
f 117/9/12 118/10/12 119/12/12
f 119/3/1 105/6/1 107/7/1
f 107/7/1 109/8/1 119/3/1
f 111/1/1 113/4/1 115/5/1
f 115/5/1 117/2/1 119/3/1
f 119/3/1 109/8/1 111/1/1
f 128/3/1 121/6/1 122/7/1
f 122/7/1 123/8/1 124/1/1
f 124/1/1 125/4/1 126/5/1
f 126/5/1 127/2/1 128/3/1
f 128/3/1 122/7/1 126/5/1
f 129/9/13 130/10/13 131/12/13
f 131/9/14 132/10/14 133/12/14
f 133/9/15 134/10/15 135/12/15
f 135/9/16 136/10/16 137/12/16
f 139/12/17 137/9/17 140/11/17
f 139/9/18 140/10/18 141/12/18
f 134/3/4 132/6/4 130/7/4
f 130/7/4 144/8/4 134/3/4
f 142/1/4 140/4/4 138/5/4
f 138/5/4 136/2/4 134/3/4
f 134/3/4 144/8/4 142/1/4
f 143/9/19 144/10/19 129/12/19
f 141/9/20 142/10/20 143/12/20
f 147/3/4 146/6/4 145/7/4
f 145/7/4 152/8/4 147/3/4
f 151/1/4 150/4/4 147/3/4
f 149/5/4 148/2/4 147/3/4
f 147/3/4 152/8/4 151/1/4
f 158/3/30 156/6/30 166/1/30
f 154/7/30 168/8/30 166/1/30
f 166/1/30 164/4/30 162/5/30
f 162/5/30 160/2/30 158/3/30
f 156/6/30 154/7/30 166/1/30
f 171/3/30 170/6/30 169/7/30
f 169/7/30 176/8/30 175/1/30
f 175/1/30 174/4/30 173/5/30
f 173/5/30 172/2/30 175/1/30
f 171/3/30 169/7/30 175/1/30
f 177/9/13 178/10/13 179/12/13
f 179/9/14 180/10/14 181/12/14
f 181/9/15 182/10/15 183/12/15
f 183/9/16 184/10/16 185/12/16
f 185/9/17 186/10/17 187/12/17
f 187/9/18 188/10/18 189/12/18
f 191/9/19 192/10/19 177/12/19
f 189/9/20 190/10/20 191/12/20
f 191/3/3 177/6/3 179/7/3
f 179/7/3 181/8/3 191/3/3
f 183/1/3 185/4/3 187/5/3
f 187/5/3 189/2/3 183/1/3
f 191/3/3 181/8/3 183/1/3
f 200/3/3 193/6/3 194/7/3
f 194/7/3 195/8/3 200/3/3
f 196/1/3 197/4/3 198/5/3
f 198/5/3 199/2/3 200/3/3
f 200/3/3 195/8/3 196/1/3
usemtl None_cable_super.png
f 154/10/21 156/11/21 155/12/21
f 156/10/22 158/11/22 157/12/22
f 158/10/23 160/11/23 159/12/23
f 160/10/24 162/11/24 161/12/24
f 162/10/25 164/11/25 163/12/25
f 164/10/26 166/11/26 165/12/26
f 168/10/27 154/11/27 153/12/27
f 166/10/28 168/11/28 167/12/28
f 159/1/29 165/2/29 167/3/29
f 153/9/21 154/10/21 155/12/21
f 155/9/22 156/10/22 157/12/22
f 157/9/23 158/10/23 159/12/23
f 159/9/24 160/10/24 161/12/24
f 161/9/25 162/10/25 163/12/25
f 163/9/26 164/10/26 165/12/26
f 167/9/27 168/10/27 153/12/27
f 165/9/28 166/10/28 167/12/28
f 167/3/29 153/6/29 155/7/29
f 155/7/29 157/8/29 167/3/29
f 159/1/29 161/4/29 163/5/29
f 163/5/29 165/2/29 159/1/29
f 167/3/29 157/8/29 159/1/29
o Cube.002_Cube.004
v 0.685000 0.530000 0.920000
v 0.685000 0.610000 0.920000
v 0.685000 0.530000 0.900000
v 0.685000 0.610000 0.900000
v 0.705000 0.530000 0.920000
v 0.705000 0.610000 0.920000
v 0.705000 0.530000 0.900000
v 0.705000 0.610000 0.900000
v 0.685000 0.590000 0.900000
v 0.685000 0.610000 0.900000
v 0.685000 0.590000 0.880000
v 0.685000 0.610000 0.880000
v 0.705000 0.590000 0.900000
v 0.705000 0.610000 0.900000
v 0.705000 0.590000 0.880000
v 0.705000 0.610000 0.880000
vt 1.000000 0.000000
vt 1.000000 1.000000
vt 0.000000 1.000000
vt 0.000000 0.000000
vn -1.000000 0.000000 0.000000
vn 0.000000 0.000000 -1.000000
vn 1.000000 0.000000 0.000000
vn 0.000000 0.000000 1.000000
vn 0.000000 -1.000000 0.000000
vn 0.000000 1.000000 0.000000
usemtl None_wool_colored_gray.png
s off
f 204/13/31 203/14/31 201/15/31
f 208/13/32 207/14/32 203/15/32
f 206/13/33 205/14/33 207/15/33
f 202/13/34 201/14/34 205/15/34
f 203/13/35 207/14/35 205/15/35
f 208/13/36 204/14/36 202/15/36
f 212/13/31 211/14/31 209/15/31
f 216/13/32 215/14/32 211/15/32
f 214/13/33 213/14/33 215/15/33
f 210/13/34 209/14/34 213/15/34
f 211/13/35 215/14/35 213/15/35
f 216/13/36 212/14/36 210/15/36
f 202/16/31 204/13/31 201/15/31
f 204/16/32 208/13/32 203/15/32
f 208/16/33 206/13/33 207/15/33
f 206/16/34 202/13/34 205/15/34
f 201/16/35 203/13/35 205/15/35
f 206/16/36 208/13/36 202/15/36
f 210/16/31 212/13/31 209/15/31
f 212/16/32 216/13/32 211/15/32
f 216/16/33 214/13/33 215/15/33
f 214/16/34 210/13/34 213/15/34
f 209/16/35 211/13/35 213/15/35
f 214/16/36 216/13/36 210/15/36
o Cube_Cube.002
v 0.250000 0.050000 0.880000
v 0.250000 0.950000 0.880000
v 0.250000 0.050000 0.840000
v 0.250000 0.950000 0.840000
v 0.750000 0.050000 0.880000
v 0.750000 0.950000 0.880000
v 0.750000 0.050000 0.840000
v 0.750000 0.950000 0.840000
v 0.140000 0.000000 0.860000
v 0.140000 1.000000 0.860000
v 0.140000 0.000000 0.140000
v 0.140000 1.000000 0.140000
v 0.860000 0.000000 0.860000
v 0.860000 1.000000 0.860000
v 0.860000 0.000000 0.140000
v 0.860000 1.000000 0.140000
vt 1.000000 0.000000
vt 1.000000 1.000000
vt 0.000000 1.000000
vt 0.000000 0.000000
vt 0.000078 0.999922
vt 0.000084 0.045797
vt 0.043595 0.098448
vt 0.569765 0.901551
vt 0.561648 0.049926
vt 0.613280 0.000078
vt 0.613277 0.954202
vt 0.051711 0.950073
vn 0.000000 0.000000 1.000000
vn 0.000000 0.000000 -1.000000
vn -1.000000 0.000000 0.000000
vn 1.000000 0.000000 0.000000
vn 0.000000 -1.000000 0.000000
vn 0.000000 1.000000 0.000000
usemtl None_wool_colored_gray.png
s off
f 218/17/37 217/18/37 221/19/37
f 222/20/37 218/17/37 221/19/37
usemtl None_wool_colored_green.png
f 224/17/38 223/18/38 219/19/38
f 228/17/39 227/18/39 225/19/39
f 232/17/38 231/18/38 227/19/38
f 230/17/40 229/18/40 231/19/40
f 226/17/37 225/18/37 229/19/37
f 227/17/41 231/18/41 229/19/41
f 232/17/42 228/18/42 226/19/42
f 220/20/38 224/17/38 219/19/38
f 226/20/39 228/17/39 225/19/39
f 228/20/38 232/17/38 227/19/38
f 232/20/40 230/17/40 231/19/40
f 230/20/37 226/17/37 229/19/37
f 225/20/41 227/17/41 229/19/41
f 230/20/42 232/17/42 226/19/42
usemtl None_cable_insulation.png
f 220/21/39 219/22/39 217/23/39
f 222/24/40 221/25/40 223/26/40
f 219/22/41 223/26/41 221/25/41
f 224/27/42 220/21/42 218/28/42
f 218/28/39 220/21/39 217/23/39
f 224/27/40 222/24/40 223/26/40
f 217/23/41 219/22/41 221/25/41
f 222/24/42 224/27/42 218/28/42
